<svg width="512" height="512" viewBox="0 0 512 512" xmlns="http://www.w3.org/2000/svg">
  <defs>
    <linearGradient id="wallGradient" x1="0%" y1="0%" x2="100%" y2="100%">
      <stop offset="0%" style="stop-color:#667eea;stop-opacity:1" />
      <stop offset="100%" style="stop-color:#764ba2;stop-opacity:1" />
    </linearGradient>
    <linearGradient id="brickGradient" x1="0%" y1="0%" x2="100%" y2="0%">
      <stop offset="0%" style="stop-color:#8B4513;stop-opacity:1" />
      <stop offset="50%" style="stop-color:#A0522D;stop-opacity:1" />
      <stop offset="100%" style="stop-color:#8B4513;stop-opacity:1" />
    </linearGradient>
  </defs>
  
  <!-- Background -->
  <rect width="512" height="512" fill="url(#wallGradient)" rx="76"/>
  
  <!-- Wall -->
  <rect x="64" y="128" width="384" height="256" fill="#f0f0f0" rx="12" stroke="#ccc" stroke-width="4"/>
  
  <!-- Brick texture -->
  <pattern id="brickPattern" x="0" y="0" width="40" height="20" patternUnits="userSpaceOnUse">
    <rect width="40" height="10" fill="#8B4513"/>
    <rect y="10" width="40" height="10" fill="#A0522D"/>
    <rect x="20" y="10" width="40" height="10" fill="#8B4513"/>
  </pattern>
  
  <!-- Wall with brick texture -->
  <rect x="68" y="132" width="376" height="248" fill="url(#brickPattern)" rx="8"/>
  
  <!-- Picture frame -->
  <rect x="180" y="200" width="80" height="60" fill="#8B4513" rx="4"/>
  <rect x="186" y="206" width="68" height="48" fill="#F5F5DC" rx="2"/>
  <rect x="190" y="210" width="60" height="40" fill="#87ceeb"/>
  
  <!-- Small decorative elements -->
  <circle cx="320" cy="180" r="8" fill="#FFD700"/>
  <rect x="140" y="240" width="20" height="30" fill="#228B22" rx="2"/>
  
  <!-- Floor -->
  <rect x="0" y="440" width="512" height="72" fill="url(#brickGradient)"/>
  
  <!-- Baseboard -->
  <rect x="32" y="424" width="448" height="16" fill="#FFFFFF"/>
  
  <!-- Paint brush icon -->
  <g transform="translate(400, 80)">
    <rect x="0" y="20" width="8" height="40" fill="#8B4513"/>
    <ellipse cx="4" cy="10" rx="12" ry="8" fill="#3498db"/>
    <path d="M-8,10 Q4,2 16,10 Q4,18 -8,10" fill="#2980b9"/>
  </g>
  
  <!-- Color palette -->
  <g transform="translate(80, 60)">
    <circle cx="0" cy="0" r="8" fill="#ff6b6b"/>
    <circle cx="20" cy="0" r="8" fill="#4ecdc4"/>
    <circle cx="40" cy="0" r="8" fill="#45b7d1"/>
    <circle cx="60" cy="0" r="8" fill="#96ceb4"/>
    <circle cx="80" cy="0" r="8" fill="#feca57"/>
  </g>
</svg>